<svg xmlns="http://www.w3.org/2000/svg" width="11.193" height="12.675" viewBox="0 0 11.193 12.675">
  <path id="Release" d="M133.2,87.63s-1.848.4-2.355.543-1.123-.869-1.3-.906c-.109.326-.471,1.232-.652,1.848.326,0,1.992.507,2.029.8.072.29.833,3.514.833,3.514s.326.688-.616.942-.978-.507-.978-.507-.652-2.463-.725-2.608a3.211,3.211,0,0,0-1.558-.326c-.29.072-.869,2.174-1.485,2.318-.761.181-3.007-1.2-3.007-1.2A.9.9,0,0,1,122.7,91a.8.8,0,0,1,1.051-.58s1.594.869,1.775.761.29-.688.543-1.3a20.517,20.517,0,0,1,.652-1.956s.362-1.159.217-1.232c-.181-.109-.4.109-.507.29a19.7,19.7,0,0,1-1.2,1.848A.715.715,0,1,1,124,88.1c.362-.652,1.377-2.536,2.1-2.9a4.938,4.938,0,0,1,3.043-.29c1.087.254,1.811,1.449,2.029,1.63.217.145,1.63-.326,1.63-.326s.833-.29,1.014.471C134.072,87.449,133.2,87.63,133.2,87.63Zm-3.369-3.115a1.4,1.4,0,0,1-1.739-.978,1.424,1.424,0,0,1,.978-1.739,1.441,1.441,0,0,1,1.739.978A1.365,1.365,0,0,1,129.833,84.514Z" transform="translate(-122.672 -81.744)"/>
</svg>
